<svg width="495" height="230" viewBox="0 0 495 230" fill="none" xmlns="http://www.w3.org/2000/svg">
    <style>
        .title  { font: 600 22px 'Segoe UI', Ubuntu, Sans-Serif; fill: #F0F6FC; }
        .header { font: 400 12px 'Segoe UI', Ubuntu, Sans-Serif; fill: #F0F6FC; }
        .stat   { font: 400 10px 'Segoe UI', Ubuntu, Sans-Serif; fill: #F0F6FC; opacity: 0.6; }
    </style>

    <!-- Background Frame Representation -->
    <rect width="495" height="230" rx="10" fill="#000000"/>
    <text x="50%" y="38" class="title" text-anchor="middle">Amey-Thakur's Most Used Languages</text>
    
    <!-- Distribution Bar Visualization -->
    <g transform="translate(30, 60)">
        <mask id="bar-mask"><rect width="435" height="14" rx="7" fill="white"/></mask>
        <rect width="435" height="14" rx="7" fill="#F0F6FC" fill-opacity="0.1"/>
        <g mask="url(#bar-mask)"><rect x="0" width="102.9382917426478" height="14" fill="#3572A5"/><rect x="102.9382917426478" width="59.08670354744896" height="14" fill="#e34c26"/><rect x="162.02499529009677" width="53.23491446400066" height="14" fill="#DA5B0B"/><rect x="215.25990975409744" width="42.12304890300741" height="14" fill="#e16737"/><rect x="257.38295865710484" width="40.19735015951079" height="14" fill="#f1e05a"/><rect x="297.5803088166156" width="30.858969450301" height="14" fill="#b07219"/><rect x="328.43927826691663" width="22.251680144834133" height="14" fill="#563d7c"/><rect x="350.6909584117508" width="21.2646206540138" height="14" fill="#4F5D95"/><rect x="371.9555790657646" width="10.315707763813801" height="14" fill="#555555"/><rect x="382.2712868295784" width="9.504042317611399" height="14" fill="#6E4C13"/><rect x="391.7753291471898" width="9.504042317611399" height="14" fill="#178600"/><rect x="401.27937146480116" width="9.504042317611399" height="14" fill="#701516"/><rect x="410.78341378241254" width="9.504042317611399" height="14" fill="#a270ba"/><rect x="420.2874561000239" width="4.811773622462103" height="14" fill="#89e051"/><rect x="425.09922972248603" width="4.6949958721197715" height="14" fill="#012456"/><rect x="429.7942255946058" width="2.013884339785809" height="14" fill="#4AF626"/><rect x="431.8081099343916" width="1.7214533296760248" height="14" fill="#3178c6"/><rect x="433.52956326406763" width="1.4704367359323298" height="14" fill="#888888"/></g></g><g transform="translate(30, 100)"><g transform="translate(0, 0)">
            <circle cx="5" cy="-7" r="5" fill="#3572A5"/>
            <text x="18" y="0" class="header">Python</text>
            <text x="140" y="0" text-anchor="end" class="stat">23.7%</text>
        </g><g transform="translate(150, 0)">
            <circle cx="5" cy="-7" r="5" fill="#e34c26"/>
            <text x="18" y="0" class="header">HTML</text>
            <text x="140" y="0" text-anchor="end" class="stat">13.6%</text>
        </g><g transform="translate(300, 0)">
            <circle cx="5" cy="-7" r="5" fill="#DA5B0B"/>
            <text x="18" y="0" class="header">Jupyter Noteb..</text>
            <text x="140" y="0" text-anchor="end" class="stat">12.2%</text>
        </g><g transform="translate(0, 20)">
            <circle cx="5" cy="-7" r="5" fill="#e16737"/>
            <text x="18" y="0" class="header">MATLAB</text>
            <text x="140" y="0" text-anchor="end" class="stat">9.7%</text>
        </g><g transform="translate(150, 20)">
            <circle cx="5" cy="-7" r="5" fill="#f1e05a"/>
            <text x="18" y="0" class="header">JavaScript</text>
            <text x="140" y="0" text-anchor="end" class="stat">9.2%</text>
        </g><g transform="translate(300, 20)">
            <circle cx="5" cy="-7" r="5" fill="#b07219"/>
            <text x="18" y="0" class="header">Java</text>
            <text x="140" y="0" text-anchor="end" class="stat">7.1%</text>
        </g><g transform="translate(0, 40)">
            <circle cx="5" cy="-7" r="5" fill="#563d7c"/>
            <text x="18" y="0" class="header">CSS</text>
            <text x="140" y="0" text-anchor="end" class="stat">5.1%</text>
        </g><g transform="translate(150, 40)">
            <circle cx="5" cy="-7" r="5" fill="#4F5D95"/>
            <text x="18" y="0" class="header">PHP</text>
            <text x="140" y="0" text-anchor="end" class="stat">4.9%</text>
        </g><g transform="translate(300, 40)">
            <circle cx="5" cy="-7" r="5" fill="#555555"/>
            <text x="18" y="0" class="header">C</text>
            <text x="140" y="0" text-anchor="end" class="stat">2.4%</text>
        </g><g transform="translate(0, 60)">
            <circle cx="5" cy="-7" r="5" fill="#6E4C13"/>
            <text x="18" y="0" class="header">Assembly</text>
            <text x="140" y="0" text-anchor="end" class="stat">2.2%</text>
        </g><g transform="translate(150, 60)">
            <circle cx="5" cy="-7" r="5" fill="#178600"/>
            <text x="18" y="0" class="header">C#</text>
            <text x="140" y="0" text-anchor="end" class="stat">2.2%</text>
        </g><g transform="translate(300, 60)">
            <circle cx="5" cy="-7" r="5" fill="#701516"/>
            <text x="18" y="0" class="header">Ruby</text>
            <text x="140" y="0" text-anchor="end" class="stat">2.2%</text>
        </g><g transform="translate(0, 80)">
            <circle cx="5" cy="-7" r="5" fill="#a270ba"/>
            <text x="18" y="0" class="header">Julia</text>
            <text x="140" y="0" text-anchor="end" class="stat">2.2%</text>
        </g><g transform="translate(150, 80)">
            <circle cx="5" cy="-7" r="5" fill="#89e051"/>
            <text x="18" y="0" class="header">Shell</text>
            <text x="140" y="0" text-anchor="end" class="stat">1.1%</text>
        </g><g transform="translate(300, 80)">
            <circle cx="5" cy="-7" r="5" fill="#012456"/>
            <text x="18" y="0" class="header">PowerShell</text>
            <text x="140" y="0" text-anchor="end" class="stat">1.1%</text>
        </g><g transform="translate(0, 100)">
            <circle cx="5" cy="-7" r="5" fill="#4AF626"/>
            <text x="18" y="0" class="header">AIDL</text>
            <text x="140" y="0" text-anchor="end" class="stat">0.5%</text>
        </g><g transform="translate(150, 100)">
            <circle cx="5" cy="-7" r="5" fill="#3178c6"/>
            <text x="18" y="0" class="header">TypeScript</text>
            <text x="140" y="0" text-anchor="end" class="stat">0.4%</text>
        </g><g transform="translate(300, 100)">
            <circle cx="5" cy="-7" r="5" fill="#888888"/>
            <text x="18" y="0" class="header">Prolog</text>
            <text x="140" y="0" text-anchor="end" class="stat">0.3%</text>
        </g></g></svg>