<svg width="495" height="230" viewBox="0 0 495 230" fill="none" xmlns="http://www.w3.org/2000/svg">
    <style>
        .title { font: 600 22px 'Segoe UI', Ubuntu, Sans-Serif; fill: #F0F6FC; }
        .label { font: 400 12px 'Segoe UI', Ubuntu, Sans-Serif; fill: #F0F6FC; }
        .perc  { font: 400 10px 'Segoe UI', Ubuntu, Sans-Serif; fill: #F0F6FC; opacity: 0.6; }
    </style>
    
    <!-- Background Frame - borderless black -->
    <rect width="495" height="230" rx="10" fill="#000000"/>
    <text x="30" y="38" class="title">Amey-Thakur's Language Usage</text>
    
    <!-- Distribution Bar Visualization -->
    <g transform="translate(30, 60)">
        <mask id="bar-mask"><rect width="435" height="14" rx="7" fill="white"/></mask>
        <rect width="435" height="14" rx="7" fill="#F0F6FC" fill-opacity="0.1"/>
        <g mask="url(#bar-mask)"><rect x="0" width="217.55790967618688" height="14" fill="#3572A5"/><rect x="217.55790967618688" width="96.08977726918877" height="14" fill="#a270ba"/><rect x="313.64768694537565" width="69.29897002439812" height="14" fill="#DA5B0B"/><rect x="382.94665696977376" width="10.7756737684012" height="14" fill="#e34c26"/><rect x="393.72233073817495" width="9.728998600382278" height="14" fill="#f1e05a"/><rect x="403.45132933855723" width="6.444118412345456" height="14" fill="#e16737"/><rect x="409.8954477509027" width="5.030503354313403" height="14" fill="#888888"/><rect x="414.9259511052161" width="4.5633862841175254" height="14" fill="#563d7c"/><rect x="419.4893373893336" width="4.044911949956715" height="14" fill="#555555"/><rect x="423.53424933929034" width="2.6906698680907275" height="14" fill="#888888"/><rect x="426.22491920738105" width="2.105734323053617" height="14" fill="#4F5D95"/><rect x="428.3306535304347" width="1.9958546710878469" height="14" fill="#888888"/><rect x="430.32650820152253" width="1.7120705867871857" height="14" fill="#888888"/><rect x="432.03857878830974" width="0.9462000416992025" height="14" fill="#3178c6"/><rect x="432.98477883000896" width="0.6675627366355995" height="14" fill="#b07219"/><rect x="433.65234156664457" width="0.6504212225939682" height="14" fill="#f34b7d"/><rect x="434.30276278923856" width="0.370058713285637" height="14" fill="#888888"/><rect x="434.6728215025242" width="0.3271784974758593" height="14" fill="#888888"/></g></g><g transform="translate(30, 100)"><g transform="translate(0, 0)">
            <circle cx="5" cy="-7" r="5" fill="#3572A5"/>
            <text x="18" y="0" class="label">Python</text>
            <text x="140" y="0" text-anchor="end" class="perc">50.0%</text>
        </g><g transform="translate(150, 0)">
            <circle cx="5" cy="-7" r="5" fill="#a270ba"/>
            <text x="18" y="0" class="label">Julia</text>
            <text x="140" y="0" text-anchor="end" class="perc">22.1%</text>
        </g><g transform="translate(300, 0)">
            <circle cx="5" cy="-7" r="5" fill="#DA5B0B"/>
            <text x="18" y="0" class="label">Jupyter Noteb</text>
            <text x="140" y="0" text-anchor="end" class="perc">15.9%</text>
        </g><g transform="translate(0, 20)">
            <circle cx="5" cy="-7" r="5" fill="#e34c26"/>
            <text x="18" y="0" class="label">HTML</text>
            <text x="140" y="0" text-anchor="end" class="perc">2.5%</text>
        </g><g transform="translate(150, 20)">
            <circle cx="5" cy="-7" r="5" fill="#f1e05a"/>
            <text x="18" y="0" class="label">JavaScript</text>
            <text x="140" y="0" text-anchor="end" class="perc">2.2%</text>
        </g><g transform="translate(300, 20)">
            <circle cx="5" cy="-7" r="5" fill="#e16737"/>
            <text x="18" y="0" class="label">MATLAB</text>
            <text x="140" y="0" text-anchor="end" class="perc">1.5%</text>
        </g><g transform="translate(0, 40)">
            <circle cx="5" cy="-7" r="5" fill="#888888"/>
            <text x="18" y="0" class="label">Rich Text For</text>
            <text x="140" y="0" text-anchor="end" class="perc">1.2%</text>
        </g><g transform="translate(150, 40)">
            <circle cx="5" cy="-7" r="5" fill="#563d7c"/>
            <text x="18" y="0" class="label">CSS</text>
            <text x="140" y="0" text-anchor="end" class="perc">1.0%</text>
        </g><g transform="translate(300, 40)">
            <circle cx="5" cy="-7" r="5" fill="#555555"/>
            <text x="18" y="0" class="label">C</text>
            <text x="140" y="0" text-anchor="end" class="perc">0.9%</text>
        </g><g transform="translate(0, 60)">
            <circle cx="5" cy="-7" r="5" fill="#888888"/>
            <text x="18" y="0" class="label">Assembly</text>
            <text x="140" y="0" text-anchor="end" class="perc">0.6%</text>
        </g><g transform="translate(150, 60)">
            <circle cx="5" cy="-7" r="5" fill="#4F5D95"/>
            <text x="18" y="0" class="label">PHP</text>
            <text x="140" y="0" text-anchor="end" class="perc">0.5%</text>
        </g><g transform="translate(300, 60)">
            <circle cx="5" cy="-7" r="5" fill="#888888"/>
            <text x="18" y="0" class="label">Ruby</text>
            <text x="140" y="0" text-anchor="end" class="perc">0.5%</text>
        </g><g transform="translate(0, 80)">
            <circle cx="5" cy="-7" r="5" fill="#888888"/>
            <text x="18" y="0" class="label">Cython</text>
            <text x="140" y="0" text-anchor="end" class="perc">0.4%</text>
        </g><g transform="translate(150, 80)">
            <circle cx="5" cy="-7" r="5" fill="#3178c6"/>
            <text x="18" y="0" class="label">TypeScript</text>
            <text x="140" y="0" text-anchor="end" class="perc">0.2%</text>
        </g><g transform="translate(300, 80)">
            <circle cx="5" cy="-7" r="5" fill="#b07219"/>
            <text x="18" y="0" class="label">Java</text>
            <text x="140" y="0" text-anchor="end" class="perc">0.2%</text>
        </g><g transform="translate(0, 100)">
            <circle cx="5" cy="-7" r="5" fill="#f34b7d"/>
            <text x="18" y="0" class="label">C++</text>
            <text x="140" y="0" text-anchor="end" class="perc">0.1%</text>
        </g><g transform="translate(150, 100)">
            <circle cx="5" cy="-7" r="5" fill="#888888"/>
            <text x="18" y="0" class="label">CoffeeScript</text>
            <text x="140" y="0" text-anchor="end" class="perc">0.1%</text>
        </g><g transform="translate(300, 100)">
            <circle cx="5" cy="-7" r="5" fill="#888888"/>
            <text x="18" y="0" class="label">SCSS</text>
            <text x="140" y="0" text-anchor="end" class="perc">0.1%</text>
        </g></g></svg>