<svg width="495" height="230" viewBox="0 0 495 230" fill="none" xmlns="http://www.w3.org/2000/svg">
    <style>
        .title { font: 600 22px 'Segoe UI', Ubuntu, Sans-Serif; fill: #F0F6FC; }
        .label { font: 400 12px 'Segoe UI', Ubuntu, Sans-Serif; fill: #F0F6FC; }
        .perc  { font: 400 10px 'Segoe UI', Ubuntu, Sans-Serif; fill: #F0F6FC; opacity: 0.6; }
    </style>
    
    <!-- Background Frame - borderless black -->
    <rect width="495" height="230" rx="10" fill="#000000"/>
    <text x="30" y="38" class="title">Amey-Thakur's Language Usage</text>
    
    <!-- Distribution Bar Visualization -->
    <g transform="translate(30, 60)">
        <mask id="bar-mask"><rect width="435" height="14" rx="7" fill="white"/></mask>
        <rect width="435" height="14" rx="7" fill="#F0F6FC" fill-opacity="0.1"/>
        <g mask="url(#bar-mask)"><rect x="0" width="221.50761825023383" height="14" fill="#3572A5"/><rect x="221.50761825023383" width="106.71202991296646" height="14" fill="#a270ba"/><rect x="328.2196481632003" width="68.50270848954256" height="14" fill="#DA5B0B"/><rect x="396.72235665274286" width="8.266947447006885" height="14" fill="#f1e05a"/><rect x="404.98930409974975" width="7.156484033202212" height="14" fill="#e16737"/><rect x="412.14578813295196" width="7.031132889084465" height="14" fill="#e34c26"/><rect x="419.1769210220364" width="3.358314480262539" height="14" fill="#563d7c"/><rect x="422.535235502299" width="3.2919725153218162" height="14" fill="#555555"/><rect x="425.82720801762076" width="2.777812947602474" height="14" fill="#888888"/><rect x="428.6050209652232" width="2.2187974378570057" height="14" fill="#4F5D95"/><rect x="430.8238184030802" width="1.9013315761834593" height="14" fill="#888888"/><rect x="432.7251499792637" width="0.5747217604751401" height="14" fill="#f34b7d"/><rect x="433.2998717397388" width="0.5458068891012492" height="14" fill="#3178c6"/><rect x="433.84567862884006" width="0.34315729592860533" height="14" fill="#b07219"/><rect x="434.1888359247687" width="0.29953949531236124" height="14" fill="#888888"/><rect x="434.48837542008107" width="0.20549411632552014" height="14" fill="#888888"/><rect x="434.69386953640657" width="0.19885511669666817" height="14" fill="#888888"/><rect x="434.89272465310324" width="0.10727534689674799" height="14" fill="#888888"/></g></g><g transform="translate(30, 100)"><g transform="translate(0, 0)">
            <circle cx="5" cy="-7" r="5" fill="#3572A5"/>
            <text x="18" y="0" class="label">Python</text>
            <text x="140" y="0" text-anchor="end" class="perc">50.9%</text>
        </g><g transform="translate(150, 0)">
            <circle cx="5" cy="-7" r="5" fill="#a270ba"/>
            <text x="18" y="0" class="label">Julia</text>
            <text x="140" y="0" text-anchor="end" class="perc">24.5%</text>
        </g><g transform="translate(300, 0)">
            <circle cx="5" cy="-7" r="5" fill="#DA5B0B"/>
            <text x="18" y="0" class="label">Jupyter Noteb</text>
            <text x="140" y="0" text-anchor="end" class="perc">15.7%</text>
        </g><g transform="translate(0, 20)">
            <circle cx="5" cy="-7" r="5" fill="#f1e05a"/>
            <text x="18" y="0" class="label">JavaScript</text>
            <text x="140" y="0" text-anchor="end" class="perc">1.9%</text>
        </g><g transform="translate(150, 20)">
            <circle cx="5" cy="-7" r="5" fill="#e16737"/>
            <text x="18" y="0" class="label">MATLAB</text>
            <text x="140" y="0" text-anchor="end" class="perc">1.6%</text>
        </g><g transform="translate(300, 20)">
            <circle cx="5" cy="-7" r="5" fill="#e34c26"/>
            <text x="18" y="0" class="label">HTML</text>
            <text x="140" y="0" text-anchor="end" class="perc">1.6%</text>
        </g><g transform="translate(0, 40)">
            <circle cx="5" cy="-7" r="5" fill="#563d7c"/>
            <text x="18" y="0" class="label">CSS</text>
            <text x="140" y="0" text-anchor="end" class="perc">0.8%</text>
        </g><g transform="translate(150, 40)">
            <circle cx="5" cy="-7" r="5" fill="#555555"/>
            <text x="18" y="0" class="label">C</text>
            <text x="140" y="0" text-anchor="end" class="perc">0.8%</text>
        </g><g transform="translate(300, 40)">
            <circle cx="5" cy="-7" r="5" fill="#888888"/>
            <text x="18" y="0" class="label">Assembly</text>
            <text x="140" y="0" text-anchor="end" class="perc">0.6%</text>
        </g><g transform="translate(0, 60)">
            <circle cx="5" cy="-7" r="5" fill="#4F5D95"/>
            <text x="18" y="0" class="label">PHP</text>
            <text x="140" y="0" text-anchor="end" class="perc">0.5%</text>
        </g><g transform="translate(150, 60)">
            <circle cx="5" cy="-7" r="5" fill="#888888"/>
            <text x="18" y="0" class="label">Cython</text>
            <text x="140" y="0" text-anchor="end" class="perc">0.4%</text>
        </g><g transform="translate(300, 60)">
            <circle cx="5" cy="-7" r="5" fill="#f34b7d"/>
            <text x="18" y="0" class="label">C++</text>
            <text x="140" y="0" text-anchor="end" class="perc">0.1%</text>
        </g><g transform="translate(0, 80)">
            <circle cx="5" cy="-7" r="5" fill="#3178c6"/>
            <text x="18" y="0" class="label">TypeScript</text>
            <text x="140" y="0" text-anchor="end" class="perc">0.1%</text>
        </g><g transform="translate(150, 80)">
            <circle cx="5" cy="-7" r="5" fill="#b07219"/>
            <text x="18" y="0" class="label">Java</text>
            <text x="140" y="0" text-anchor="end" class="perc">0.1%</text>
        </g><g transform="translate(300, 80)">
            <circle cx="5" cy="-7" r="5" fill="#888888"/>
            <text x="18" y="0" class="label">SCSS</text>
            <text x="140" y="0" text-anchor="end" class="perc">0.1%</text>
        </g><g transform="translate(0, 100)">
            <circle cx="5" cy="-7" r="5" fill="#888888"/>
            <text x="18" y="0" class="label">CoffeeScript</text>
            <text x="140" y="0" text-anchor="end" class="perc">0.0%</text>
        </g><g transform="translate(150, 100)">
            <circle cx="5" cy="-7" r="5" fill="#888888"/>
            <text x="18" y="0" class="label">TeX</text>
            <text x="140" y="0" text-anchor="end" class="perc">0.0%</text>
        </g><g transform="translate(300, 100)">
            <circle cx="5" cy="-7" r="5" fill="#888888"/>
            <text x="18" y="0" class="label">Less</text>
            <text x="140" y="0" text-anchor="end" class="perc">0.0%</text>
        </g></g></svg>