<svg width="495" height="230" viewBox="0 0 495 230" fill="none" xmlns="http://www.w3.org/2000/svg">
    <style>
        .title  { font: 600 22px 'Segoe UI', Ubuntu, Sans-Serif; fill: #F0F6FC; }
        .header { font: 400 12px 'Segoe UI', Ubuntu, Sans-Serif; fill: #F0F6FC; }
        .stat   { font: 400 10px 'Segoe UI', Ubuntu, Sans-Serif; fill: #F0F6FC; opacity: 0.6; }
    </style>

    <!-- Background Frame Representation -->
    <rect width="495" height="230" rx="10" fill="#000000"/>
    <text x="50%" y="38" class="title" text-anchor="middle">Amey-Thakur's Most Used Languages</text>
    
    <!-- Distribution Bar Visualization -->
    <g transform="translate(30, 60)">
        <mask id="bar-mask"><rect width="435" height="14" rx="7" fill="white"/></mask>
        <rect width="435" height="14" rx="7" fill="#F0F6FC" fill-opacity="0.1"/>
        <g mask="url(#bar-mask)"><rect x="0" width="118.41366758490652" height="14" fill="#3572A5"/><rect x="118.41366758490652" width="63.993861606157516" height="14" fill="#e34c26"/><rect x="182.40752919106404" width="55.07007279778368" height="14" fill="#DA5B0B"/><rect x="237.4776019888477" width="49.97706649477803" height="14" fill="#f1e05a"/><rect x="287.4546684836257" width="26.260512908622392" height="14" fill="#563d7c"/><rect x="313.7151813922481" width="20.484278065784103" height="14" fill="#e16737"/><rect x="334.1994594580322" width="18.3087327149656" height="14" fill="#701516"/><rect x="352.50819217299784" width="16.639978869724587" height="14" fill="#b07219"/><rect x="369.1481710427224" width="12.82585066485943" height="14" fill="#555555"/><rect x="381.97402170758187" width="10.557776203006002" height="14" fill="#4F5D95"/><rect x="392.5317979105879" width="8.982653524347711" height="14" fill="#3178c6"/><rect x="401.5144514349356" width="8.43998322815878" height="14" fill="#6E4C13"/><rect x="409.9544346630944" width="7.480025211087416" height="14" fill="#89e051"/><rect x="417.4344598741818" width="4.622052851476288" height="14" fill="#178600"/><rect x="422.0565127256581" width="4.622052851476288" height="14" fill="#a270ba"/><rect x="426.67856557713435" width="2.910457513297786" height="14" fill="#888888"/><rect x="429.58902309043214" width="2.720534351822485" height="14" fill="#dea584"/><rect x="432.30955744225463" width="2.6904425577453948" height="14" fill="#012456"/></g></g><g transform="translate(30, 100)"><g transform="translate(0, 0)">
            <circle cx="5" cy="-4" r="5" fill="#3572A5"/>
            <text x="18" y="0" class="header">Python</text>
            <text x="140" y="0" text-anchor="end" class="stat">27.2%</text>
        </g><g transform="translate(150, 0)">
            <circle cx="5" cy="-4" r="5" fill="#e34c26"/>
            <text x="18" y="0" class="header">HTML</text>
            <text x="140" y="0" text-anchor="end" class="stat">14.7%</text>
        </g><g transform="translate(300, 0)">
            <circle cx="5" cy="-4" r="5" fill="#DA5B0B"/>
            <text x="18" y="0" class="header">Jupyter Noteb..</text>
            <text x="140" y="0" text-anchor="end" class="stat">12.7%</text>
        </g><g transform="translate(0, 20)">
            <circle cx="5" cy="-4" r="5" fill="#f1e05a"/>
            <text x="18" y="0" class="header">JavaScript</text>
            <text x="140" y="0" text-anchor="end" class="stat">11.5%</text>
        </g><g transform="translate(150, 20)">
            <circle cx="5" cy="-4" r="5" fill="#563d7c"/>
            <text x="18" y="0" class="header">CSS</text>
            <text x="140" y="0" text-anchor="end" class="stat">6.0%</text>
        </g><g transform="translate(300, 20)">
            <circle cx="5" cy="-4" r="5" fill="#e16737"/>
            <text x="18" y="0" class="header">MATLAB</text>
            <text x="140" y="0" text-anchor="end" class="stat">4.7%</text>
        </g><g transform="translate(0, 40)">
            <circle cx="5" cy="-4" r="5" fill="#701516"/>
            <text x="18" y="0" class="header">Ruby</text>
            <text x="140" y="0" text-anchor="end" class="stat">4.2%</text>
        </g><g transform="translate(150, 40)">
            <circle cx="5" cy="-4" r="5" fill="#b07219"/>
            <text x="18" y="0" class="header">Java</text>
            <text x="140" y="0" text-anchor="end" class="stat">3.8%</text>
        </g><g transform="translate(300, 40)">
            <circle cx="5" cy="-4" r="5" fill="#555555"/>
            <text x="18" y="0" class="header">C</text>
            <text x="140" y="0" text-anchor="end" class="stat">2.9%</text>
        </g><g transform="translate(0, 60)">
            <circle cx="5" cy="-4" r="5" fill="#4F5D95"/>
            <text x="18" y="0" class="header">PHP</text>
            <text x="140" y="0" text-anchor="end" class="stat">2.4%</text>
        </g><g transform="translate(150, 60)">
            <circle cx="5" cy="-4" r="5" fill="#3178c6"/>
            <text x="18" y="0" class="header">TypeScript</text>
            <text x="140" y="0" text-anchor="end" class="stat">2.1%</text>
        </g><g transform="translate(300, 60)">
            <circle cx="5" cy="-4" r="5" fill="#6E4C13"/>
            <text x="18" y="0" class="header">Assembly</text>
            <text x="140" y="0" text-anchor="end" class="stat">1.9%</text>
        </g><g transform="translate(0, 80)">
            <circle cx="5" cy="-4" r="5" fill="#89e051"/>
            <text x="18" y="0" class="header">Shell</text>
            <text x="140" y="0" text-anchor="end" class="stat">1.7%</text>
        </g><g transform="translate(150, 80)">
            <circle cx="5" cy="-4" r="5" fill="#178600"/>
            <text x="18" y="0" class="header">C#</text>
            <text x="140" y="0" text-anchor="end" class="stat">1.1%</text>
        </g><g transform="translate(300, 80)">
            <circle cx="5" cy="-4" r="5" fill="#a270ba"/>
            <text x="18" y="0" class="header">Julia</text>
            <text x="140" y="0" text-anchor="end" class="stat">1.1%</text>
        </g><g transform="translate(0, 100)">
            <circle cx="5" cy="-4" r="5" fill="#888888"/>
            <text x="18" y="0" class="header">TeX</text>
            <text x="140" y="0" text-anchor="end" class="stat">0.7%</text>
        </g><g transform="translate(150, 100)">
            <circle cx="5" cy="-4" r="5" fill="#dea584"/>
            <text x="18" y="0" class="header">Rust</text>
            <text x="140" y="0" text-anchor="end" class="stat">0.6%</text>
        </g><g transform="translate(300, 100)">
            <circle cx="5" cy="-4" r="5" fill="#012456"/>
            <text x="18" y="0" class="header">PowerShell</text>
            <text x="140" y="0" text-anchor="end" class="stat">0.6%</text>
        </g></g></svg>