<svg width="495" height="230" viewBox="0 0 495 230" fill="none" xmlns="http://www.w3.org/2000/svg">
    <style>
        .title  { font: 600 22px 'Segoe UI', Ubuntu, Sans-Serif; fill: #F0F6FC; }
        .header { font: 400 12px 'Segoe UI', Ubuntu, Sans-Serif; fill: #F0F6FC; }
        .stat   { font: 400 10px 'Segoe UI', Ubuntu, Sans-Serif; fill: #F0F6FC; opacity: 0.6; }
    </style>

    <!-- Background Frame Representation -->
    <rect width="495" height="230" rx="10" fill="#000000"/>
    <text x="50%" y="38" class="title" text-anchor="middle">Amey-Thakur's Most Used Languages</text>
    
    <!-- Distribution Bar Visualization -->
    <g transform="translate(30, 60)">
        <mask id="bar-mask"><rect width="435" height="14" rx="7" fill="white"/></mask>
        <rect width="435" height="14" rx="7" fill="#F0F6FC" fill-opacity="0.1"/>
        <g mask="url(#bar-mask)"><rect x="0" width="106.67686475947566" height="14" fill="#3572A5"/><rect x="106.67686475947566" width="72.4288146075841" height="14" fill="#e34c26"/><rect x="179.10567936705976" width="56.35397252641452" height="14" fill="#DA5B0B"/><rect x="235.4596518934743" width="48.77301154879511" height="14" fill="#f1e05a"/><rect x="284.2326634422694" width="28.39626685665117" height="14" fill="#563d7c"/><rect x="312.6289302989206" width="22.943334098668206" height="14" fill="#e16737"/><rect x="335.5722643975888" width="20.43705847862115" height="14" fill="#701516"/><rect x="356.00932287621" width="18.636440012386576" height="14" fill="#b07219"/><rect x="374.64576288859655" width="12.526526395532713" height="14" fill="#555555"/><rect x="387.17228928412925" width="11.824495957114182" height="14" fill="#4F5D95"/><rect x="398.99678524124346" width="9.724544562606225" height="14" fill="#6E4C13"/><rect x="408.7213298038497" width="5.339053577088477" height="14" fill="#89e051"/><rect x="414.06038338093816" width="5.17660577426225" height="14" fill="#178600"/><rect x="419.23698915520043" width="5.17660577426225" height="14" fill="#a270ba"/><rect x="424.4135949294627" width="5.17660577426225" height="14" fill="#FFFFFF"/><rect x="429.590200703725" width="3.477224324548968" height="14" fill="#3178c6"/><rect x="433.06742502827393" width="1.096910656922624" height="14" fill="#4AF626"/><rect x="434.16433568519653" width="0.8356643148035564" height="14" fill="#DBCA00"/></g></g><g transform="translate(30, 100)"><g transform="translate(0, 0)">
            <circle cx="5" cy="-7" r="5" fill="#3572A5"/>
            <text x="18" y="0" class="header">Python</text>
            <text x="140" y="0" text-anchor="end" class="stat">24.5%</text>
        </g><g transform="translate(150, 0)">
            <circle cx="5" cy="-7" r="5" fill="#e34c26"/>
            <text x="18" y="0" class="header">HTML</text>
            <text x="140" y="0" text-anchor="end" class="stat">16.7%</text>
        </g><g transform="translate(300, 0)">
            <circle cx="5" cy="-7" r="5" fill="#DA5B0B"/>
            <text x="18" y="0" class="header">Jupyter Noteb..</text>
            <text x="140" y="0" text-anchor="end" class="stat">13.0%</text>
        </g><g transform="translate(0, 20)">
            <circle cx="5" cy="-7" r="5" fill="#f1e05a"/>
            <text x="18" y="0" class="header">JavaScript</text>
            <text x="140" y="0" text-anchor="end" class="stat">11.2%</text>
        </g><g transform="translate(150, 20)">
            <circle cx="5" cy="-7" r="5" fill="#563d7c"/>
            <text x="18" y="0" class="header">CSS</text>
            <text x="140" y="0" text-anchor="end" class="stat">6.5%</text>
        </g><g transform="translate(300, 20)">
            <circle cx="5" cy="-7" r="5" fill="#e16737"/>
            <text x="18" y="0" class="header">MATLAB</text>
            <text x="140" y="0" text-anchor="end" class="stat">5.3%</text>
        </g><g transform="translate(0, 40)">
            <circle cx="5" cy="-7" r="5" fill="#701516"/>
            <text x="18" y="0" class="header">Ruby</text>
            <text x="140" y="0" text-anchor="end" class="stat">4.7%</text>
        </g><g transform="translate(150, 40)">
            <circle cx="5" cy="-7" r="5" fill="#b07219"/>
            <text x="18" y="0" class="header">Java</text>
            <text x="140" y="0" text-anchor="end" class="stat">4.3%</text>
        </g><g transform="translate(300, 40)">
            <circle cx="5" cy="-7" r="5" fill="#555555"/>
            <text x="18" y="0" class="header">C</text>
            <text x="140" y="0" text-anchor="end" class="stat">2.9%</text>
        </g><g transform="translate(0, 60)">
            <circle cx="5" cy="-7" r="5" fill="#4F5D95"/>
            <text x="18" y="0" class="header">PHP</text>
            <text x="140" y="0" text-anchor="end" class="stat">2.7%</text>
        </g><g transform="translate(150, 60)">
            <circle cx="5" cy="-7" r="5" fill="#6E4C13"/>
            <text x="18" y="0" class="header">Assembly</text>
            <text x="140" y="0" text-anchor="end" class="stat">2.2%</text>
        </g><g transform="translate(300, 60)">
            <circle cx="5" cy="-7" r="5" fill="#89e051"/>
            <text x="18" y="0" class="header">Shell</text>
            <text x="140" y="0" text-anchor="end" class="stat">1.2%</text>
        </g><g transform="translate(0, 80)">
            <circle cx="5" cy="-7" r="5" fill="#178600"/>
            <text x="18" y="0" class="header">C#</text>
            <text x="140" y="0" text-anchor="end" class="stat">1.2%</text>
        </g><g transform="translate(150, 80)">
            <circle cx="5" cy="-7" r="5" fill="#a270ba"/>
            <text x="18" y="0" class="header">Julia</text>
            <text x="140" y="0" text-anchor="end" class="stat">1.2%</text>
        </g><g transform="translate(300, 80)">
            <circle cx="5" cy="-7" r="5" fill="#FFFFFF"/>
            <text x="18" y="0" class="header">Rich Text For..</text>
            <text x="140" y="0" text-anchor="end" class="stat">1.2%</text>
        </g><g transform="translate(0, 100)">
            <circle cx="5" cy="-7" r="5" fill="#3178c6"/>
            <text x="18" y="0" class="header">TypeScript</text>
            <text x="140" y="0" text-anchor="end" class="stat">0.8%</text>
        </g><g transform="translate(150, 100)">
            <circle cx="5" cy="-7" r="5" fill="#4AF626"/>
            <text x="18" y="0" class="header">AIDL</text>
            <text x="140" y="0" text-anchor="end" class="stat">0.3%</text>
        </g><g transform="translate(300, 100)">
            <circle cx="5" cy="-7" r="5" fill="#DBCA00"/>
            <text x="18" y="0" class="header">Lex</text>
            <text x="140" y="0" text-anchor="end" class="stat">0.2%</text>
        </g></g></svg>