<svg width="495" height="230" viewBox="0 0 495 230" fill="none" xmlns="http://www.w3.org/2000/svg">
    <style>
        .title  { font: 600 22px 'Segoe UI', Ubuntu, Sans-Serif; fill: #F0F6FC; }
        .header { font: 400 12px 'Segoe UI', Ubuntu, Sans-Serif; fill: #F0F6FC; }
        .stat   { font: 400 10px 'Segoe UI', Ubuntu, Sans-Serif; fill: #F0F6FC; opacity: 0.6; }
    </style>

    <!-- Background Frame Representation -->
    <rect width="495" height="230" rx="10" fill="#000000"/>
    <text x="30" y="38" class="title">Amey-Thakur's Most Used Languages</text>
    
    <!-- Distribution Bar Visualization -->
    <g transform="translate(30, 60)">
        <mask id="bar-mask"><rect width="435" height="14" rx="7" fill="white"/></mask>
        <rect width="435" height="14" rx="7" fill="#F0F6FC" fill-opacity="0.1"/>
        <g mask="url(#bar-mask)"><rect x="0" width="117.76645494161828" height="14" fill="#3572A5"/><rect x="117.76645494161828" width="53.81262344271064" height="14" fill="#e34c26"/><rect x="171.5790783843289" width="50.107065976809174" height="14" fill="#DA5B0B"/><rect x="221.68614436113808" width="48.22904638047868" height="14" fill="#e16737"/><rect x="269.91519074161675" width="35.33216867324348" height="14" fill="#b07219"/><rect x="305.2473594148602" width="31.751120724988365" height="14" fill="#f1e05a"/><rect x="336.9984801398486" width="24.34705944831298" height="14" fill="#4F5D95"/><rect x="361.34553958816156" width="24.245342732868963" height="14" fill="#563d7c"/><rect x="385.5908823210305" width="11.811033653666016" height="14" fill="#555555"/><rect x="397.4019159746965" width="10.881712261464209" height="14" fill="#6E4C13"/><rect x="408.2836282361607" width="10.881712261464209" height="14" fill="#178600"/><rect x="419.1653404976249" width="10.881712261464209" height="14" fill="#701516"/><rect x="430.0470527590891" width="2.3058093789007503" height="14" fill="#4AF626"/><rect x="432.35286213798986" width="1.6835856706416321" height="14" fill="#888888"/><rect x="434.03644780863146" width="0.5424262469729819" height="14" fill="#888888"/><rect x="434.57887405560444" width="0.24836933694196398" height="14" fill="#888888"/><rect x="434.8272433925464" width="0.5" height="14" fill="#888888"/><rect x="435.3272433925464" width="0.5" height="14" fill="#888888"/></g></g><g transform="translate(30, 100)"><g transform="translate(0, 0)">
            <circle cx="5" cy="-7" r="5" fill="#3572A5"/>
            <text x="18" y="0" class="header">Python</text>
            <text x="140" y="0" text-anchor="end" class="stat">27.1%</text>
        </g><g transform="translate(150, 0)">
            <circle cx="5" cy="-7" r="5" fill="#e34c26"/>
            <text x="18" y="0" class="header">HTML</text>
            <text x="140" y="0" text-anchor="end" class="stat">12.4%</text>
        </g><g transform="translate(300, 0)">
            <circle cx="5" cy="-7" r="5" fill="#DA5B0B"/>
            <text x="18" y="0" class="header">Jupyter Noteb..</text>
            <text x="140" y="0" text-anchor="end" class="stat">11.5%</text>
        </g><g transform="translate(0, 20)">
            <circle cx="5" cy="-7" r="5" fill="#e16737"/>
            <text x="18" y="0" class="header">MATLAB</text>
            <text x="140" y="0" text-anchor="end" class="stat">11.1%</text>
        </g><g transform="translate(150, 20)">
            <circle cx="5" cy="-7" r="5" fill="#b07219"/>
            <text x="18" y="0" class="header">Java</text>
            <text x="140" y="0" text-anchor="end" class="stat">8.1%</text>
        </g><g transform="translate(300, 20)">
            <circle cx="5" cy="-7" r="5" fill="#f1e05a"/>
            <text x="18" y="0" class="header">JavaScript</text>
            <text x="140" y="0" text-anchor="end" class="stat">7.3%</text>
        </g><g transform="translate(0, 40)">
            <circle cx="5" cy="-7" r="5" fill="#4F5D95"/>
            <text x="18" y="0" class="header">PHP</text>
            <text x="140" y="0" text-anchor="end" class="stat">5.6%</text>
        </g><g transform="translate(150, 40)">
            <circle cx="5" cy="-7" r="5" fill="#563d7c"/>
            <text x="18" y="0" class="header">CSS</text>
            <text x="140" y="0" text-anchor="end" class="stat">5.6%</text>
        </g><g transform="translate(300, 40)">
            <circle cx="5" cy="-7" r="5" fill="#555555"/>
            <text x="18" y="0" class="header">C</text>
            <text x="140" y="0" text-anchor="end" class="stat">2.7%</text>
        </g><g transform="translate(0, 60)">
            <circle cx="5" cy="-7" r="5" fill="#6E4C13"/>
            <text x="18" y="0" class="header">Assembly</text>
            <text x="140" y="0" text-anchor="end" class="stat">2.5%</text>
        </g><g transform="translate(150, 60)">
            <circle cx="5" cy="-7" r="5" fill="#178600"/>
            <text x="18" y="0" class="header">C#</text>
            <text x="140" y="0" text-anchor="end" class="stat">2.5%</text>
        </g><g transform="translate(300, 60)">
            <circle cx="5" cy="-7" r="5" fill="#701516"/>
            <text x="18" y="0" class="header">Ruby</text>
            <text x="140" y="0" text-anchor="end" class="stat">2.5%</text>
        </g><g transform="translate(0, 80)">
            <circle cx="5" cy="-7" r="5" fill="#4AF626"/>
            <text x="18" y="0" class="header">AIDL</text>
            <text x="140" y="0" text-anchor="end" class="stat">0.5%</text>
        </g><g transform="translate(150, 80)">
            <circle cx="5" cy="-7" r="5" fill="#888888"/>
            <text x="18" y="0" class="header">Prolog</text>
            <text x="140" y="0" text-anchor="end" class="stat">0.4%</text>
        </g><g transform="translate(300, 80)">
            <circle cx="5" cy="-7" r="5" fill="#888888"/>
            <text x="18" y="0" class="header">SCSS</text>
            <text x="140" y="0" text-anchor="end" class="stat">0.1%</text>
        </g><g transform="translate(0, 100)">
            <circle cx="5" cy="-7" r="5" fill="#888888"/>
            <text x="18" y="0" class="header">Less</text>
            <text x="140" y="0" text-anchor="end" class="stat">0.1%</text>
        </g><g transform="translate(150, 100)">
            <circle cx="5" cy="-7" r="5" fill="#888888"/>
            <text x="18" y="0" class="header">Cython</text>
            <text x="140" y="0" text-anchor="end" class="stat">0.0%</text>
        </g><g transform="translate(300, 100)">
            <circle cx="5" cy="-7" r="5" fill="#888888"/>
            <text x="18" y="0" class="header">Hack</text>
            <text x="140" y="0" text-anchor="end" class="stat">0.0%</text>
        </g></g></svg>