<svg width="495" height="230" viewBox="0 0 495 230" fill="none" xmlns="http://www.w3.org/2000/svg">
    <style>
        .title  { font: 600 22px 'Segoe UI', Ubuntu, Sans-Serif; fill: #F0F6FC; }
        .header { font: 400 12px 'Segoe UI', Ubuntu, Sans-Serif; fill: #F0F6FC; }
        .stat   { font: 400 10px 'Segoe UI', Ubuntu, Sans-Serif; fill: #F0F6FC; opacity: 0.6; }
    </style>

    <!-- Background Frame Representation -->
    <rect width="495" height="230" rx="10" fill="#000000"/>
    <text x="50%" y="38" class="title" text-anchor="middle">Amey-Thakur's Most Used Languages</text>
    
    <!-- Distribution Bar Visualization -->
    <g transform="translate(30, 60)">
        <mask id="bar-mask"><rect width="435" height="14" rx="7" fill="white"/></mask>
        <rect width="435" height="14" rx="7" fill="#F0F6FC" fill-opacity="0.1"/>
        <g mask="url(#bar-mask)"><rect x="0" width="113.11340309418414" height="14" fill="#3572A5"/><rect x="113.11340309418414" width="67.05858565692722" height="14" fill="#e34c26"/><rect x="180.17198875111137" width="52.02754920399958" height="14" fill="#DA5B0B"/><rect x="232.19953795511094" width="51.19253551382119" height="14" fill="#f1e05a"/><rect x="283.39207346893215" width="26.157572553098085" height="14" fill="#563d7c"/><rect x="309.54964602203023" width="21.18395958549051" height="14" fill="#e16737"/><rect x="330.73360560752076" width="18.93398788390694" height="14" fill="#701516"/><rect x="349.6675934914277" width="17.20733309038689" height="14" fill="#b07219"/><rect x="366.8749265818146" width="13.297013783191996" height="14" fill="#555555"/><rect x="380.17194036500655" width="10.91775255492805" height="14" fill="#4F5D95"/><rect x="391.0896929199346" width="8.978832723946152" height="14" fill="#6E4C13"/><rect x="400.0685256438807" width="7.659751995739671" height="14" fill="#89e051"/><rect x="407.7282776396204" width="5.871061452582011" height="14" fill="#3178c6"/><rect x="413.5993390922024" width="4.779645671391489" height="14" fill="#178600"/><rect x="418.3789847635939" width="4.779645671391489" height="14" fill="#a270ba"/><rect x="423.1586304349854" width="4.779645671391489" height="14" fill="#FFFFFF"/><rect x="427.9382761063769" width="4.481016432606939" height="14" fill="#012456"/><rect x="432.4192925389839" width="2.5807074610161536" height="14" fill="#dea584"/></g></g><g transform="translate(30, 100)"><g transform="translate(0, 0)">
            <circle cx="5" cy="-4" r="5" fill="#3572A5"/>
            <text x="18" y="0" class="header">Python</text>
            <text x="140" y="0" text-anchor="end" class="stat">26.0%</text>
        </g><g transform="translate(150, 0)">
            <circle cx="5" cy="-4" r="5" fill="#e34c26"/>
            <text x="18" y="0" class="header">HTML</text>
            <text x="140" y="0" text-anchor="end" class="stat">15.4%</text>
        </g><g transform="translate(300, 0)">
            <circle cx="5" cy="-4" r="5" fill="#DA5B0B"/>
            <text x="18" y="0" class="header">Jupyter Noteb..</text>
            <text x="140" y="0" text-anchor="end" class="stat">12.0%</text>
        </g><g transform="translate(0, 20)">
            <circle cx="5" cy="-4" r="5" fill="#f1e05a"/>
            <text x="18" y="0" class="header">JavaScript</text>
            <text x="140" y="0" text-anchor="end" class="stat">11.8%</text>
        </g><g transform="translate(150, 20)">
            <circle cx="5" cy="-4" r="5" fill="#563d7c"/>
            <text x="18" y="0" class="header">CSS</text>
            <text x="140" y="0" text-anchor="end" class="stat">6.0%</text>
        </g><g transform="translate(300, 20)">
            <circle cx="5" cy="-4" r="5" fill="#e16737"/>
            <text x="18" y="0" class="header">MATLAB</text>
            <text x="140" y="0" text-anchor="end" class="stat">4.9%</text>
        </g><g transform="translate(0, 40)">
            <circle cx="5" cy="-4" r="5" fill="#701516"/>
            <text x="18" y="0" class="header">Ruby</text>
            <text x="140" y="0" text-anchor="end" class="stat">4.4%</text>
        </g><g transform="translate(150, 40)">
            <circle cx="5" cy="-4" r="5" fill="#b07219"/>
            <text x="18" y="0" class="header">Java</text>
            <text x="140" y="0" text-anchor="end" class="stat">4.0%</text>
        </g><g transform="translate(300, 40)">
            <circle cx="5" cy="-4" r="5" fill="#555555"/>
            <text x="18" y="0" class="header">C</text>
            <text x="140" y="0" text-anchor="end" class="stat">3.1%</text>
        </g><g transform="translate(0, 60)">
            <circle cx="5" cy="-4" r="5" fill="#4F5D95"/>
            <text x="18" y="0" class="header">PHP</text>
            <text x="140" y="0" text-anchor="end" class="stat">2.5%</text>
        </g><g transform="translate(150, 60)">
            <circle cx="5" cy="-4" r="5" fill="#6E4C13"/>
            <text x="18" y="0" class="header">Assembly</text>
            <text x="140" y="0" text-anchor="end" class="stat">2.1%</text>
        </g><g transform="translate(300, 60)">
            <circle cx="5" cy="-4" r="5" fill="#89e051"/>
            <text x="18" y="0" class="header">Shell</text>
            <text x="140" y="0" text-anchor="end" class="stat">1.8%</text>
        </g><g transform="translate(0, 80)">
            <circle cx="5" cy="-4" r="5" fill="#3178c6"/>
            <text x="18" y="0" class="header">TypeScript</text>
            <text x="140" y="0" text-anchor="end" class="stat">1.3%</text>
        </g><g transform="translate(150, 80)">
            <circle cx="5" cy="-4" r="5" fill="#178600"/>
            <text x="18" y="0" class="header">C#</text>
            <text x="140" y="0" text-anchor="end" class="stat">1.1%</text>
        </g><g transform="translate(300, 80)">
            <circle cx="5" cy="-4" r="5" fill="#a270ba"/>
            <text x="18" y="0" class="header">Julia</text>
            <text x="140" y="0" text-anchor="end" class="stat">1.1%</text>
        </g><g transform="translate(0, 100)">
            <circle cx="5" cy="-4" r="5" fill="#FFFFFF"/>
            <text x="18" y="0" class="header">Rich Text For..</text>
            <text x="140" y="0" text-anchor="end" class="stat">1.1%</text>
        </g><g transform="translate(150, 100)">
            <circle cx="5" cy="-4" r="5" fill="#012456"/>
            <text x="18" y="0" class="header">PowerShell</text>
            <text x="140" y="0" text-anchor="end" class="stat">1.0%</text>
        </g><g transform="translate(300, 100)">
            <circle cx="5" cy="-4" r="5" fill="#dea584"/>
            <text x="18" y="0" class="header">Rust</text>
            <text x="140" y="0" text-anchor="end" class="stat">0.6%</text>
        </g></g></svg>