<svg width="495" height="230" viewBox="0 0 495 230" fill="none" xmlns="http://www.w3.org/2000/svg">
    <style>
        .title  { font: 600 22px 'Segoe UI', Ubuntu, Sans-Serif; fill: #F0F6FC; }
        .header { font: 400 12px 'Segoe UI', Ubuntu, Sans-Serif; fill: #F0F6FC; }
        .stat   { font: 400 10px 'Segoe UI', Ubuntu, Sans-Serif; fill: #F0F6FC; opacity: 0.6; }
    </style>

    <!-- Background Frame Representation -->
    <rect width="495" height="230" rx="10" fill="#000000"/>
    <text x="50%" y="38" class="title" text-anchor="middle">Amey-Thakur's Most Used Languages</text>
    
    <!-- Distribution Bar Visualization -->
    <g transform="translate(30, 60)">
        <mask id="bar-mask"><rect width="435" height="14" rx="7" fill="white"/></mask>
        <rect width="435" height="14" rx="7" fill="#F0F6FC" fill-opacity="0.1"/>
        <g mask="url(#bar-mask)"><rect x="0" width="107.68044731784389" height="14" fill="#3572A5"/><rect x="107.68044731784389" width="68.56821903345293" height="14" fill="#e34c26"/><rect x="176.24866635129683" width="53.1971820897701" height="14" fill="#DA5B0B"/><rect x="229.44584844106694" width="51.31611801516747" height="14" fill="#f1e05a"/><rect x="280.7619664562344" width="26.74076416673115" height="14" fill="#563d7c"/><rect x="307.50273062296554" width="21.66019681290383" height="14" fill="#e16737"/><rect x="329.1629274358694" width="19.359790377185885" height="14" fill="#701516"/><rect x="348.5227178130553" width="17.59417165893081" height="14" fill="#b07219"/><rect x="366.1168894719861" width="13.599911880502162" height="14" fill="#555555"/><rect x="379.71680135248823" width="11.163194875819984" height="14" fill="#4F5D95"/><rect x="390.87999622830824" width="9.180686130274822" height="14" fill="#6E4C13"/><rect x="400.06068235858305" width="7.831972280816789" height="14" fill="#89e051"/><rect x="407.89265463939984" width="5.987278290736356" height="14" fill="#3178c6"/><rect x="413.8799329301362" width="4.887097028319147" height="14" fill="#178600"/><rect x="418.76702995845534" width="4.887097028319147" height="14" fill="#a270ba"/><rect x="423.6541269867745" width="4.887097028319147" height="14" fill="#FFFFFF"/><rect x="428.54122401509363" width="4.581755826321393" height="14" fill="#012456"/><rect x="433.12297984141503" width="1.8770201585850017" height="14" fill="#dea584"/></g></g><g transform="translate(30, 100)"><g transform="translate(0, 0)">
            <circle cx="5" cy="-4" r="5" fill="#3572A5"/>
            <text x="18" y="0" class="header">Python</text>
            <text x="140" y="0" text-anchor="end" class="stat">24.8%</text>
        </g><g transform="translate(150, 0)">
            <circle cx="5" cy="-4" r="5" fill="#e34c26"/>
            <text x="18" y="0" class="header">HTML</text>
            <text x="140" y="0" text-anchor="end" class="stat">15.8%</text>
        </g><g transform="translate(300, 0)">
            <circle cx="5" cy="-4" r="5" fill="#DA5B0B"/>
            <text x="18" y="0" class="header">Jupyter Noteb..</text>
            <text x="140" y="0" text-anchor="end" class="stat">12.2%</text>
        </g><g transform="translate(0, 20)">
            <circle cx="5" cy="-4" r="5" fill="#f1e05a"/>
            <text x="18" y="0" class="header">JavaScript</text>
            <text x="140" y="0" text-anchor="end" class="stat">11.8%</text>
        </g><g transform="translate(150, 20)">
            <circle cx="5" cy="-4" r="5" fill="#563d7c"/>
            <text x="18" y="0" class="header">CSS</text>
            <text x="140" y="0" text-anchor="end" class="stat">6.1%</text>
        </g><g transform="translate(300, 20)">
            <circle cx="5" cy="-4" r="5" fill="#e16737"/>
            <text x="18" y="0" class="header">MATLAB</text>
            <text x="140" y="0" text-anchor="end" class="stat">5.0%</text>
        </g><g transform="translate(0, 40)">
            <circle cx="5" cy="-4" r="5" fill="#701516"/>
            <text x="18" y="0" class="header">Ruby</text>
            <text x="140" y="0" text-anchor="end" class="stat">4.5%</text>
        </g><g transform="translate(150, 40)">
            <circle cx="5" cy="-4" r="5" fill="#b07219"/>
            <text x="18" y="0" class="header">Java</text>
            <text x="140" y="0" text-anchor="end" class="stat">4.0%</text>
        </g><g transform="translate(300, 40)">
            <circle cx="5" cy="-4" r="5" fill="#555555"/>
            <text x="18" y="0" class="header">C</text>
            <text x="140" y="0" text-anchor="end" class="stat">3.1%</text>
        </g><g transform="translate(0, 60)">
            <circle cx="5" cy="-4" r="5" fill="#4F5D95"/>
            <text x="18" y="0" class="header">PHP</text>
            <text x="140" y="0" text-anchor="end" class="stat">2.6%</text>
        </g><g transform="translate(150, 60)">
            <circle cx="5" cy="-4" r="5" fill="#6E4C13"/>
            <text x="18" y="0" class="header">Assembly</text>
            <text x="140" y="0" text-anchor="end" class="stat">2.1%</text>
        </g><g transform="translate(300, 60)">
            <circle cx="5" cy="-4" r="5" fill="#89e051"/>
            <text x="18" y="0" class="header">Shell</text>
            <text x="140" y="0" text-anchor="end" class="stat">1.8%</text>
        </g><g transform="translate(0, 80)">
            <circle cx="5" cy="-4" r="5" fill="#3178c6"/>
            <text x="18" y="0" class="header">TypeScript</text>
            <text x="140" y="0" text-anchor="end" class="stat">1.4%</text>
        </g><g transform="translate(150, 80)">
            <circle cx="5" cy="-4" r="5" fill="#178600"/>
            <text x="18" y="0" class="header">C#</text>
            <text x="140" y="0" text-anchor="end" class="stat">1.1%</text>
        </g><g transform="translate(300, 80)">
            <circle cx="5" cy="-4" r="5" fill="#a270ba"/>
            <text x="18" y="0" class="header">Julia</text>
            <text x="140" y="0" text-anchor="end" class="stat">1.1%</text>
        </g><g transform="translate(0, 100)">
            <circle cx="5" cy="-4" r="5" fill="#FFFFFF"/>
            <text x="18" y="0" class="header">Rich Text For..</text>
            <text x="140" y="0" text-anchor="end" class="stat">1.1%</text>
        </g><g transform="translate(150, 100)">
            <circle cx="5" cy="-4" r="5" fill="#012456"/>
            <text x="18" y="0" class="header">PowerShell</text>
            <text x="140" y="0" text-anchor="end" class="stat">1.1%</text>
        </g><g transform="translate(300, 100)">
            <circle cx="5" cy="-4" r="5" fill="#dea584"/>
            <text x="18" y="0" class="header">Rust</text>
            <text x="140" y="0" text-anchor="end" class="stat">0.4%</text>
        </g></g></svg>