<svg width="495" height="140" viewBox="0 0 495 140" fill="none" xmlns="http://www.w3.org/2000/svg">
    <rect width="495" height="140" rx="6" fill="#060A0C"/>
    <text x="30" y="32" font-family="'Segoe UI', Inter, sans-serif" font-weight="800" font-size="18" fill="#00fbff" letter-spacing="-0.5px">LINGUISTIC PROFILE</text>
    
    <g transform="translate(30, 50)">
        <mask id="bar-mask"><rect width="435" height="10" rx="5" fill="white"/></mask>
        <rect width="435" height="10" rx="5" fill="#FFFFFF" fill-opacity="0.1"/>
        <g mask="url(#bar-mask)"><rect x="0" width="216.93655227131777" height="10" fill="#f1e05a"/><rect x="215.93655227131777" width="204.21501879862893" height="10" fill="#6E4C13"/><rect x="419.1515710699467" width="10.307677325954494" height="10" fill="#563d7c"/><rect x="428.4592483959012" width="7.54075160409881" height="10" fill="#e34c26"/></g></g><g transform="translate(30, 80)">
        <g transform="translate(0, 0)">
            <circle cx="5" cy="-5" r="5" fill="#f1e05a"/>
            <text x="18" y="0" font-family="'Segoe UI', sans-serif" font-size="12" font-weight="600" fill="#FFFFFF">JAVASCRIPT</text>
            <text x="135" y="0" text_anchor="end" font-family="'Segoe UI', sans-serif" font-size="10" font-weight="300" fill="#FFFFFF" fill-opacity="0.5">49.6%</text>
        </g>
        <g transform="translate(150, 0)">
            <circle cx="5" cy="-5" r="5" fill="#6E4C13"/>
            <text x="18" y="0" font-family="'Segoe UI', sans-serif" font-size="12" font-weight="600" fill="#FFFFFF">ASSEMBLY</text>
            <text x="135" y="0" text_anchor="end" font-family="'Segoe UI', sans-serif" font-size="10" font-weight="300" fill="#FFFFFF" fill-opacity="0.5">46.7%</text>
        </g>
        <g transform="translate(300, 0)">
            <circle cx="5" cy="-5" r="5" fill="#563d7c"/>
            <text x="18" y="0" font-family="'Segoe UI', sans-serif" font-size="12" font-weight="600" fill="#FFFFFF">CSS</text>
            <text x="135" y="0" text_anchor="end" font-family="'Segoe UI', sans-serif" font-size="10" font-weight="300" fill="#FFFFFF" fill-opacity="0.5">2.1%</text>
        </g>
        <g transform="translate(0, 20)">
            <circle cx="5" cy="-5" r="5" fill="#e34c26"/>
            <text x="18" y="0" font-family="'Segoe UI', sans-serif" font-size="12" font-weight="600" fill="#FFFFFF">HTML</text>
            <text x="135" y="0" text_anchor="end" font-family="'Segoe UI', sans-serif" font-size="10" font-weight="300" fill="#FFFFFF" fill-opacity="0.5">1.5%</text>
        </g></g></svg>