<svg width="495" height="200" viewBox="0 0 495 200" fill="none" xmlns="http://www.w3.org/2000/svg">
    <rect width="495" height="200" rx="6" fill="#060A0C"/>
    <text x="30" y="32" font-family="'Segoe UI', Inter, sans-serif" font-weight="800" font-size="18" fill="#00fbff" letter-spacing="-0.5px">LINGUISTIC PROFILE</text>
    
    <g transform="translate(30, 50)">
        <mask id="bar-mask"><rect width="435" height="10" rx="5" fill="white"/></mask>
        <rect width="435" height="10" rx="5" fill="#FFFFFF" fill-opacity="0.1"/>
        <g mask="url(#bar-mask)"><rect x="0" width="313.765" height="10" fill="#3572A5"/><rect x="312.765" width="71.03500000000001" height="10" fill="#DA5B0B"/><rect x="382.8" width="17.095" height="10" fill="#f1e05a"/><rect x="398.895" width="11.875" height="10" fill="#e34c26"/><rect x="409.77" width="7.5249999999999995" height="10" fill="#563d7c"/><rect x="416.29499999999996" width="5.785" height="10" fill="#555555"/><rect x="421.08" width="4.914999999999999" height="10" fill="#6E4C13"/><rect x="424.995" width="4.045" height="10" fill="#4F5D95"/><rect x="428.04" width="3.61" height="10" fill="#1171EE"/><rect x="430.65000000000003" width="1.87" height="10" fill="#f34b7d"/><rect x="431.52000000000004" width="1.87" height="10" fill="#3178c6"/><rect x="432.39000000000004" width="1.87" height="10" fill="#e16737"/><rect x="433.26000000000005" width="1.435" height="10" fill="#b07219"/><rect x="433.69500000000005" width="1.435" height="10" fill="#c6538c"/><rect x="434.13000000000005" width="1.435" height="10" fill="#244776"/></g></g><g transform="translate(30, 80)">
        <g transform="translate(0, 0)">
            <circle cx="5" cy="-5" r="5" fill="#3572A5"/>
            <text x="18" y="0" font-family="'Segoe UI', sans-serif" font-size="12" font-weight="600" fill="#FFFFFF">PYTHON</text>
            <text x="135" y="0" text_anchor="end" font-family="'Segoe UI', sans-serif" font-size="10" font-weight="300" fill="#FFFFFF" fill-opacity="0.5">71.9%</text>
        </g>
        <g transform="translate(150, 0)">
            <circle cx="5" cy="-5" r="5" fill="#DA5B0B"/>
            <text x="18" y="0" font-family="'Segoe UI', sans-serif" font-size="12" font-weight="600" fill="#FFFFFF">JUPYTER NOTEBOOK</text>
            <text x="135" y="0" text_anchor="end" font-family="'Segoe UI', sans-serif" font-size="10" font-weight="300" fill="#FFFFFF" fill-opacity="0.5">16.1%</text>
        </g>
        <g transform="translate(300, 0)">
            <circle cx="5" cy="-5" r="5" fill="#f1e05a"/>
            <text x="18" y="0" font-family="'Segoe UI', sans-serif" font-size="12" font-weight="600" fill="#FFFFFF">JAVASCRIPT</text>
            <text x="135" y="0" text_anchor="end" font-family="'Segoe UI', sans-serif" font-size="10" font-weight="300" fill="#FFFFFF" fill-opacity="0.5">3.7%</text>
        </g>
        <g transform="translate(0, 20)">
            <circle cx="5" cy="-5" r="5" fill="#e34c26"/>
            <text x="18" y="0" font-family="'Segoe UI', sans-serif" font-size="12" font-weight="600" fill="#FFFFFF">HTML</text>
            <text x="135" y="0" text_anchor="end" font-family="'Segoe UI', sans-serif" font-size="10" font-weight="300" fill="#FFFFFF" fill-opacity="0.5">2.5%</text>
        </g>
        <g transform="translate(150, 20)">
            <circle cx="5" cy="-5" r="5" fill="#563d7c"/>
            <text x="18" y="0" font-family="'Segoe UI', sans-serif" font-size="12" font-weight="600" fill="#FFFFFF">CSS</text>
            <text x="135" y="0" text_anchor="end" font-family="'Segoe UI', sans-serif" font-size="10" font-weight="300" fill="#FFFFFF" fill-opacity="0.5">1.5%</text>
        </g>
        <g transform="translate(300, 20)">
            <circle cx="5" cy="-5" r="5" fill="#555555"/>
            <text x="18" y="0" font-family="'Segoe UI', sans-serif" font-size="12" font-weight="600" fill="#FFFFFF">C</text>
            <text x="135" y="0" text_anchor="end" font-family="'Segoe UI', sans-serif" font-size="10" font-weight="300" fill="#FFFFFF" fill-opacity="0.5">1.1%</text>
        </g>
        <g transform="translate(0, 40)">
            <circle cx="5" cy="-5" r="5" fill="#6E4C13"/>
            <text x="18" y="0" font-family="'Segoe UI', sans-serif" font-size="12" font-weight="600" fill="#FFFFFF">ASSEMBLY</text>
            <text x="135" y="0" text_anchor="end" font-family="'Segoe UI', sans-serif" font-size="10" font-weight="300" fill="#FFFFFF" fill-opacity="0.5">0.9%</text>
        </g>
        <g transform="translate(150, 40)">
            <circle cx="5" cy="-5" r="5" fill="#4F5D95"/>
            <text x="18" y="0" font-family="'Segoe UI', sans-serif" font-size="12" font-weight="600" fill="#FFFFFF">PHP</text>
            <text x="135" y="0" text_anchor="end" font-family="'Segoe UI', sans-serif" font-size="10" font-weight="300" fill="#FFFFFF" fill-opacity="0.5">0.7%</text>
        </g>
        <g transform="translate(300, 40)">
            <circle cx="5" cy="-5" r="5" fill="#1171EE"/>
            <text x="18" y="0" font-family="'Segoe UI', sans-serif" font-size="12" font-weight="600" fill="#FFFFFF">CYTHON</text>
            <text x="135" y="0" text_anchor="end" font-family="'Segoe UI', sans-serif" font-size="10" font-weight="300" fill="#FFFFFF" fill-opacity="0.5">0.6%</text>
        </g>
        <g transform="translate(0, 60)">
            <circle cx="5" cy="-5" r="5" fill="#f34b7d"/>
            <text x="18" y="0" font-family="'Segoe UI', sans-serif" font-size="12" font-weight="600" fill="#FFFFFF">C++</text>
            <text x="135" y="0" text_anchor="end" font-family="'Segoe UI', sans-serif" font-size="10" font-weight="300" fill="#FFFFFF" fill-opacity="0.5">0.2%</text>
        </g>
        <g transform="translate(150, 60)">
            <circle cx="5" cy="-5" r="5" fill="#3178c6"/>
            <text x="18" y="0" font-family="'Segoe UI', sans-serif" font-size="12" font-weight="600" fill="#FFFFFF">TYPESCRIPT</text>
            <text x="135" y="0" text_anchor="end" font-family="'Segoe UI', sans-serif" font-size="10" font-weight="300" fill="#FFFFFF" fill-opacity="0.5">0.2%</text>
        </g>
        <g transform="translate(300, 60)">
            <circle cx="5" cy="-5" r="5" fill="#e16737"/>
            <text x="18" y="0" font-family="'Segoe UI', sans-serif" font-size="12" font-weight="600" fill="#FFFFFF">MATLAB</text>
            <text x="135" y="0" text_anchor="end" font-family="'Segoe UI', sans-serif" font-size="10" font-weight="300" fill="#FFFFFF" fill-opacity="0.5">0.2%</text>
        </g>
        <g transform="translate(0, 80)">
            <circle cx="5" cy="-5" r="5" fill="#b07219"/>
            <text x="18" y="0" font-family="'Segoe UI', sans-serif" font-size="12" font-weight="600" fill="#FFFFFF">JAVA</text>
            <text x="135" y="0" text_anchor="end" font-family="'Segoe UI', sans-serif" font-size="10" font-weight="300" fill="#FFFFFF" fill-opacity="0.5">0.1%</text>
        </g>
        <g transform="translate(150, 80)">
            <circle cx="5" cy="-5" r="5" fill="#c6538c"/>
            <text x="18" y="0" font-family="'Segoe UI', sans-serif" font-size="12" font-weight="600" fill="#FFFFFF">SCSS</text>
            <text x="135" y="0" text_anchor="end" font-family="'Segoe UI', sans-serif" font-size="10" font-weight="300" fill="#FFFFFF" fill-opacity="0.5">0.1%</text>
        </g>
        <g transform="translate(300, 80)">
            <circle cx="5" cy="-5" r="5" fill="#244776"/>
            <text x="18" y="0" font-family="'Segoe UI', sans-serif" font-size="12" font-weight="600" fill="#FFFFFF">COFFEESCRIPT</text>
            <text x="135" y="0" text_anchor="end" font-family="'Segoe UI', sans-serif" font-size="10" font-weight="300" fill="#FFFFFF" fill-opacity="0.5">0.1%</text>
        </g></g></svg>