<svg width="495" height="236" viewBox="0 0 495 236" fill="none" xmlns="http://www.w3.org/2000/svg">
    <rect width="495" height="236" rx="4.5" fill="#0D1117"/>
    <text x="25" y="32" font-family="'Segoe UI', Ubuntu, sans-serif" font-weight="bold" font-size="18" fill="#00fbff">Most Used Languages</text>
    
    <g transform="translate(25, 60)">
    
        <text x="0" y="0" font-family="'Segoe UI', Ubuntu, sans-serif" font-size="12" fill="#FFFFFF">HTML</text>
        <rect x="100" y="-8" width="320" height="7" rx="3.5" fill="#FFFFFF" fill-opacity="0.1"/>
        <rect x="100" y="-8" width="180" height="7" rx="3.5" fill="#00fbff"/>
        <text x="430" y="0" font-family="'Segoe UI', Ubuntu, sans-serif" font-size="12" fill="#FFFFFF">56.4%</text>
        
        <text x="0" y="22" font-family="'Segoe UI', Ubuntu, sans-serif" font-size="12" fill="#FFFFFF">Python</text>
        <rect x="100" y="14" width="320" height="7" rx="3.5" fill="#FFFFFF" fill-opacity="0.1"/>
        <rect x="100" y="14" width="91" height="7" rx="3.5" fill="#00fbff"/>
        <text x="430" y="22" font-family="'Segoe UI', Ubuntu, sans-serif" font-size="12" fill="#FFFFFF">28.7%</text>
        
        <text x="0" y="44" font-family="'Segoe UI', Ubuntu, sans-serif" font-size="12" fill="#FFFFFF">Jupyter Notebook</text>
        <rect x="100" y="36" width="320" height="7" rx="3.5" fill="#FFFFFF" fill-opacity="0.1"/>
        <rect x="100" y="36" width="27" height="7" rx="3.5" fill="#00fbff"/>
        <text x="430" y="44" font-family="'Segoe UI', Ubuntu, sans-serif" font-size="12" fill="#FFFFFF">8.7%</text>
        
        <text x="0" y="66" font-family="'Segoe UI', Ubuntu, sans-serif" font-size="12" fill="#FFFFFF">JavaScript</text>
        <rect x="100" y="58" width="320" height="7" rx="3.5" fill="#FFFFFF" fill-opacity="0.1"/>
        <rect x="100" y="58" width="6" height="7" rx="3.5" fill="#00fbff"/>
        <text x="430" y="66" font-family="'Segoe UI', Ubuntu, sans-serif" font-size="12" fill="#FFFFFF">2.0%</text>
        
        <text x="0" y="88" font-family="'Segoe UI', Ubuntu, sans-serif" font-size="12" fill="#FFFFFF">CSS</text>
        <rect x="100" y="80" width="320" height="7" rx="3.5" fill="#FFFFFF" fill-opacity="0.1"/>
        <rect x="100" y="80" width="2" height="7" rx="3.5" fill="#00fbff"/>
        <text x="430" y="88" font-family="'Segoe UI', Ubuntu, sans-serif" font-size="12" fill="#FFFFFF">0.8%</text>
        
        <text x="0" y="110" font-family="'Segoe UI', Ubuntu, sans-serif" font-size="12" fill="#FFFFFF">Rich Text Format</text>
        <rect x="100" y="102" width="320" height="7" rx="3.5" fill="#FFFFFF" fill-opacity="0.1"/>
        <rect x="100" y="102" width="2" height="7" rx="3.5" fill="#00fbff"/>
        <text x="430" y="110" font-family="'Segoe UI', Ubuntu, sans-serif" font-size="12" fill="#FFFFFF">0.7%</text>
        
        <text x="0" y="132" font-family="'Segoe UI', Ubuntu, sans-serif" font-size="12" fill="#FFFFFF">Julia</text>
        <rect x="100" y="124" width="320" height="7" rx="3.5" fill="#FFFFFF" fill-opacity="0.1"/>
        <rect x="100" y="124" width="1" height="7" rx="3.5" fill="#00fbff"/>
        <text x="430" y="132" font-family="'Segoe UI', Ubuntu, sans-serif" font-size="12" fill="#FFFFFF">0.6%</text>
        
        <text x="0" y="154" font-family="'Segoe UI', Ubuntu, sans-serif" font-size="12" fill="#FFFFFF">C</text>
        <rect x="100" y="146" width="320" height="7" rx="3.5" fill="#FFFFFF" fill-opacity="0.1"/>
        <rect x="100" y="146" width="1" height="7" rx="3.5" fill="#00fbff"/>
        <text x="430" y="154" font-family="'Segoe UI', Ubuntu, sans-serif" font-size="12" fill="#FFFFFF">0.6%</text>
        
    </g>
</svg>