<svg width="495" height="230" viewBox="0 0 495 230" fill="none" xmlns="http://www.w3.org/2000/svg">
    <style>
        .title { font: 600 22px 'Segoe UI', Ubuntu, Sans-Serif; fill: #F0F6FC; }
        .label { font: 400 12px 'Segoe UI', Ubuntu, Sans-Serif; fill: #F0F6FC; }
        .perc  { font: 400 10px 'Segoe UI', Ubuntu, Sans-Serif; fill: #F0F6FC; opacity: 0.6; }
    </style>
    
    <!-- Background Frame -->
    <rect width="495" height="230" rx="10" fill="#000000"/>
    <text x="30" y="38" class="title">Amey-Thakur's Language Usage</text>
    
    <!-- Progress Bar Section -->
    <g transform="translate(30, 60)">
        <mask id="bar-mask"><rect width="435" height="14" rx="7" fill="white"/></mask>
        <rect width="435" height="14" rx="7" fill="#F0F6FC" fill-opacity="0.1"/>
        <g mask="url(#bar-mask)"><rect x="0" width="217.56009561224096" height="14" fill="#3572A5"/><rect x="217.56009561224096" width="96.0888112827588" height="14" fill="#a270ba"/><rect x="313.64890689499975" width="69.29827336480999" height="14" fill="#DA5B0B"/><rect x="382.9471802598097" width="10.775565441012688" height="14" fill="#e34c26"/><rect x="393.72274570082243" width="9.728900795174562" height="14" fill="#f1e05a"/><rect x="403.451646495997" width="6.444053629898078" height="14" fill="#e16737"/><rect x="409.8957001258951" width="5.030452782877873" height="14" fill="#888888"/><rect x="414.92615290877296" width="4.563340408589968" height="14" fill="#563d7c"/><rect x="419.4894933173629" width="4.04487128662951" height="14" fill="#555555"/><rect x="423.53436460399246" width="2.690642818901376" height="14" fill="#888888"/><rect x="426.22500742289384" width="2.105713154196336" height="14" fill="#4F5D95"/><rect x="428.3307205770902" width="1.9958346068460178" height="14" fill="#888888"/><rect x="430.3265551839362" width="1.7120533754146443" height="14" fill="#888888"/><rect x="432.03860855935085" width="0.946190529590565" height="14" fill="#3178c6"/><rect x="432.98479908894143" width="0.6675560256558983" height="14" fill="#b07219"/><rect x="433.65235511459736" width="0.6504146839371759" height="14" fill="#f34b7d"/><rect x="434.30276979853454" width="0.37005499310118567" height="14" fill="#888888"/><rect x="434.6728247916357" width="0.32717520836438746" height="14" fill="#888888"/></g></g><g transform="translate(30, 100)"><g transform="translate(0, 0)">
            <circle cx="5" cy="-7" r="5" fill="#3572A5"/>
            <text x="18" y="0" class="label">Python</text>
            <text x="140" y="0" text-anchor="end" class="perc">50.0%</text>
        </g><g transform="translate(150, 0)">
            <circle cx="5" cy="-7" r="5" fill="#a270ba"/>
            <text x="18" y="0" class="label">Julia</text>
            <text x="140" y="0" text-anchor="end" class="perc">22.1%</text>
        </g><g transform="translate(300, 0)">
            <circle cx="5" cy="-7" r="5" fill="#DA5B0B"/>
            <text x="18" y="0" class="label">Jupyter Noteb</text>
            <text x="140" y="0" text-anchor="end" class="perc">15.9%</text>
        </g><g transform="translate(0, 20)">
            <circle cx="5" cy="-7" r="5" fill="#e34c26"/>
            <text x="18" y="0" class="label">HTML</text>
            <text x="140" y="0" text-anchor="end" class="perc">2.5%</text>
        </g><g transform="translate(150, 20)">
            <circle cx="5" cy="-7" r="5" fill="#f1e05a"/>
            <text x="18" y="0" class="label">JavaScript</text>
            <text x="140" y="0" text-anchor="end" class="perc">2.2%</text>
        </g><g transform="translate(300, 20)">
            <circle cx="5" cy="-7" r="5" fill="#e16737"/>
            <text x="18" y="0" class="label">MATLAB</text>
            <text x="140" y="0" text-anchor="end" class="perc">1.5%</text>
        </g><g transform="translate(0, 40)">
            <circle cx="5" cy="-7" r="5" fill="#888888"/>
            <text x="18" y="0" class="label">Rich Text For</text>
            <text x="140" y="0" text-anchor="end" class="perc">1.2%</text>
        </g><g transform="translate(150, 40)">
            <circle cx="5" cy="-7" r="5" fill="#563d7c"/>
            <text x="18" y="0" class="label">CSS</text>
            <text x="140" y="0" text-anchor="end" class="perc">1.0%</text>
        </g><g transform="translate(300, 40)">
            <circle cx="5" cy="-7" r="5" fill="#555555"/>
            <text x="18" y="0" class="label">C</text>
            <text x="140" y="0" text-anchor="end" class="perc">0.9%</text>
        </g><g transform="translate(0, 60)">
            <circle cx="5" cy="-7" r="5" fill="#888888"/>
            <text x="18" y="0" class="label">Assembly</text>
            <text x="140" y="0" text-anchor="end" class="perc">0.6%</text>
        </g><g transform="translate(150, 60)">
            <circle cx="5" cy="-7" r="5" fill="#4F5D95"/>
            <text x="18" y="0" class="label">PHP</text>
            <text x="140" y="0" text-anchor="end" class="perc">0.5%</text>
        </g><g transform="translate(300, 60)">
            <circle cx="5" cy="-7" r="5" fill="#888888"/>
            <text x="18" y="0" class="label">Ruby</text>
            <text x="140" y="0" text-anchor="end" class="perc">0.5%</text>
        </g><g transform="translate(0, 80)">
            <circle cx="5" cy="-7" r="5" fill="#888888"/>
            <text x="18" y="0" class="label">Cython</text>
            <text x="140" y="0" text-anchor="end" class="perc">0.4%</text>
        </g><g transform="translate(150, 80)">
            <circle cx="5" cy="-7" r="5" fill="#3178c6"/>
            <text x="18" y="0" class="label">TypeScript</text>
            <text x="140" y="0" text-anchor="end" class="perc">0.2%</text>
        </g><g transform="translate(300, 80)">
            <circle cx="5" cy="-7" r="5" fill="#b07219"/>
            <text x="18" y="0" class="label">Java</text>
            <text x="140" y="0" text-anchor="end" class="perc">0.2%</text>
        </g><g transform="translate(0, 100)">
            <circle cx="5" cy="-7" r="5" fill="#f34b7d"/>
            <text x="18" y="0" class="label">C++</text>
            <text x="140" y="0" text-anchor="end" class="perc">0.1%</text>
        </g><g transform="translate(150, 100)">
            <circle cx="5" cy="-7" r="5" fill="#888888"/>
            <text x="18" y="0" class="label">CoffeeScript</text>
            <text x="140" y="0" text-anchor="end" class="perc">0.1%</text>
        </g><g transform="translate(300, 100)">
            <circle cx="5" cy="-7" r="5" fill="#888888"/>
            <text x="18" y="0" class="label">SCSS</text>
            <text x="140" y="0" text-anchor="end" class="perc">0.1%</text>
        </g></g></svg>