<svg width="495" height="230" viewBox="0 0 495 230" fill="none" xmlns="http://www.w3.org/2000/svg">
    <style>
        .title  { font: 600 22px 'Segoe UI', Ubuntu, Sans-Serif; fill: #F0F6FC; }
        .header { font: 400 12px 'Segoe UI', Ubuntu, Sans-Serif; fill: #F0F6FC; }
        .stat   { font: 400 10px 'Segoe UI', Ubuntu, Sans-Serif; fill: #F0F6FC; opacity: 0.6; }
    </style>

    <!-- Background Frame Representation -->
    <rect width="495" height="230" rx="10" fill="#000000"/>
    <text x="50%" y="38" class="title" text-anchor="middle">Amey-Thakur's Most Used Languages</text>
    
    <!-- Distribution Bar Visualization -->
    <g transform="translate(30, 60)">
        <mask id="bar-mask"><rect width="435" height="14" rx="7" fill="white"/></mask>
        <rect width="435" height="14" rx="7" fill="#F0F6FC" fill-opacity="0.1"/>
        <g mask="url(#bar-mask)"><rect x="0" width="105.9273176560114" height="14" fill="#3572A5"/><rect x="105.9273176560114" width="70.44507665358924" height="14" fill="#e34c26"/><rect x="176.37239430960062" width="54.81905969361134" height="14" fill="#DA5B0B"/><rect x="231.19145400321196" width="47.78484549295913" height="14" fill="#f1e05a"/><rect x="278.97629949617107" width="27.512154072003714" height="14" fill="#563d7c"/><rect x="306.4884535681748" width="22.320573673587162" height="14" fill="#e16737"/><rect x="328.80902724176195" width="19.950032363590967" height="14" fill="#701516"/><rect x="348.75905960535295" width="18.130583398251968" height="14" fill="#b07219"/><rect x="366.88964300360493" width="14.014546483815906" height="14" fill="#555555"/><rect x="380.9041894874208" width="11.503538763318668" height="14" fill="#4F5D95"/><rect x="392.40772825073947" width="9.46058721972467" height="14" fill="#6E4C13"/><rect x="401.86831547046415" width="8.070753733840498" height="14" fill="#89e051"/><rect x="409.93906920430464" width="5.036095018563336" height="14" fill="#178600"/><rect x="414.975164222868" width="5.036095018563336" height="14" fill="#a270ba"/><rect x="420.01125924143133" width="5.036095018563336" height="14" fill="#FFFFFF"/><rect x="425.0473542599947" width="4.721444562999961" height="14" fill="#012456"/><rect x="429.76879882299465" width="3.38521179104429" height="14" fill="#3178c6"/><rect x="433.15401061403895" width="1.8459893859610894" height="14" fill="#888888"/></g></g><g transform="translate(30, 100)"><g transform="translate(0, 0)">
            <circle cx="5" cy="-4" r="5" fill="#3572A5"/>
            <text x="18" y="0" class="header">Python</text>
            <text x="140" y="0" text-anchor="end" class="stat">24.4%</text>
        </g><g transform="translate(150, 0)">
            <circle cx="5" cy="-4" r="5" fill="#e34c26"/>
            <text x="18" y="0" class="header">HTML</text>
            <text x="140" y="0" text-anchor="end" class="stat">16.2%</text>
        </g><g transform="translate(300, 0)">
            <circle cx="5" cy="-4" r="5" fill="#DA5B0B"/>
            <text x="18" y="0" class="header">Jupyter Noteb..</text>
            <text x="140" y="0" text-anchor="end" class="stat">12.6%</text>
        </g><g transform="translate(0, 20)">
            <circle cx="5" cy="-4" r="5" fill="#f1e05a"/>
            <text x="18" y="0" class="header">JavaScript</text>
            <text x="140" y="0" text-anchor="end" class="stat">11.0%</text>
        </g><g transform="translate(150, 20)">
            <circle cx="5" cy="-4" r="5" fill="#563d7c"/>
            <text x="18" y="0" class="header">CSS</text>
            <text x="140" y="0" text-anchor="end" class="stat">6.3%</text>
        </g><g transform="translate(300, 20)">
            <circle cx="5" cy="-4" r="5" fill="#e16737"/>
            <text x="18" y="0" class="header">MATLAB</text>
            <text x="140" y="0" text-anchor="end" class="stat">5.1%</text>
        </g><g transform="translate(0, 40)">
            <circle cx="5" cy="-4" r="5" fill="#701516"/>
            <text x="18" y="0" class="header">Ruby</text>
            <text x="140" y="0" text-anchor="end" class="stat">4.6%</text>
        </g><g transform="translate(150, 40)">
            <circle cx="5" cy="-4" r="5" fill="#b07219"/>
            <text x="18" y="0" class="header">Java</text>
            <text x="140" y="0" text-anchor="end" class="stat">4.2%</text>
        </g><g transform="translate(300, 40)">
            <circle cx="5" cy="-4" r="5" fill="#555555"/>
            <text x="18" y="0" class="header">C</text>
            <text x="140" y="0" text-anchor="end" class="stat">3.2%</text>
        </g><g transform="translate(0, 60)">
            <circle cx="5" cy="-4" r="5" fill="#4F5D95"/>
            <text x="18" y="0" class="header">PHP</text>
            <text x="140" y="0" text-anchor="end" class="stat">2.6%</text>
        </g><g transform="translate(150, 60)">
            <circle cx="5" cy="-4" r="5" fill="#6E4C13"/>
            <text x="18" y="0" class="header">Assembly</text>
            <text x="140" y="0" text-anchor="end" class="stat">2.2%</text>
        </g><g transform="translate(300, 60)">
            <circle cx="5" cy="-4" r="5" fill="#89e051"/>
            <text x="18" y="0" class="header">Shell</text>
            <text x="140" y="0" text-anchor="end" class="stat">1.9%</text>
        </g><g transform="translate(0, 80)">
            <circle cx="5" cy="-4" r="5" fill="#178600"/>
            <text x="18" y="0" class="header">C#</text>
            <text x="140" y="0" text-anchor="end" class="stat">1.2%</text>
        </g><g transform="translate(150, 80)">
            <circle cx="5" cy="-4" r="5" fill="#a270ba"/>
            <text x="18" y="0" class="header">Julia</text>
            <text x="140" y="0" text-anchor="end" class="stat">1.2%</text>
        </g><g transform="translate(300, 80)">
            <circle cx="5" cy="-4" r="5" fill="#FFFFFF"/>
            <text x="18" y="0" class="header">Rich Text For..</text>
            <text x="140" y="0" text-anchor="end" class="stat">1.2%</text>
        </g><g transform="translate(0, 100)">
            <circle cx="5" cy="-4" r="5" fill="#012456"/>
            <text x="18" y="0" class="header">PowerShell</text>
            <text x="140" y="0" text-anchor="end" class="stat">1.1%</text>
        </g><g transform="translate(150, 100)">
            <circle cx="5" cy="-4" r="5" fill="#3178c6"/>
            <text x="18" y="0" class="header">TypeScript</text>
            <text x="140" y="0" text-anchor="end" class="stat">0.8%</text>
        </g><g transform="translate(300, 100)">
            <circle cx="5" cy="-4" r="5" fill="#888888"/>
            <text x="18" y="0" class="header">Lean</text>
            <text x="140" y="0" text-anchor="end" class="stat">0.4%</text>
        </g></g></svg>