<svg width="495" height="195" viewBox="0 0 495 195" fill="none" xmlns="http://www.w3.org/2000/svg">
    <rect width="495" height="195" rx="10" fill="#060A0C"/>
    <text x="25" y="32" font-family="'Segoe UI', Inter, sans-serif" font-weight="600" font-size="22" fill="#00fbff" letter-spacing="-0.2px">Amey-Thakur's GitHub Stats</text>
    
    <g transform="translate(30, 65)">
        <g transform="translate(0, 0)">
            <svg x="0" y="-14" width="18" height="18" viewBox="0 0 16 16"><path d="M8 .25a.75.75 0 01.673.418l1.882 3.815 4.21.612a.75.75 0 01.416 1.279l-3.046 2.97.719 4.192a.75.75 0 01-1.088.791L8 12.347l-3.766 1.98a.75.75 0 01-1.088-.79l.72-4.194L.818 6.374a.75.75 0 01.416-1.28l4.21-.611L7.327.668A.75.75 0 018 .25z" fill="none" stroke="#00fbff" stroke-width="1.2"/></svg>
            <text x="35" y="0" font-family="'Segoe UI', sans-serif" font-weight="700" font-size="14" fill="#FFFFFF">Total Stars Earned:</text>
            <text x="220" y="0" font-family="'Segoe UI', sans-serif" font-weight="900" font-size="14" fill="#FFFFFF">1295</text>
        </g>
        <g transform="translate(0, 26)">
            <svg x="0" y="-14" width="18" height="18" viewBox="0 0 16 16"><path d="M8 0a8 8 0 100 16A8 8 0 008 0zM1.5 8a6.5 6.5 0 1113 0 6.5 6.5 0 01-13 0z" fill="#00fbff"/><path d="M8 3.5a.75.75 0 01.75.75v3.5h2.5a.75.75 0 010 1.5h-3.25a.75.75 0 01-.75-.75v-4.25a.75.75 0 01.75-.75z" fill="#00fbff"/></svg>
            <text x="35" y="0" font-family="'Segoe UI', sans-serif" font-weight="700" font-size="14" fill="#FFFFFF">Total Commits:</text>
            <text x="220" y="0" font-family="'Segoe UI', sans-serif" font-weight="900" font-size="14" fill="#FFFFFF">13.2k+</text>
        </g>
        <g transform="translate(0, 52)">
            <svg x="0" y="-14" width="18" height="18" viewBox="0 0 16 16"><path d="M7.177 3.073L9.573.677A.25.25 0 0110 .854v4.792a.25.25 0 01-.427.177L7.177 3.427a.25.25 0 010-.354zM3.75 2.5a.75.75 0 100 1.5.75.75 0 000-1.5zm-2.25.75a2.25.25 0 113 2.122v5.256a2.251 2.251 0 11-1.5 0V5.372A2.25 2.25 0 011.5 3.25zM11 2.5h-1V4h1a1 1 0 011 1v5.628a2.251 2.251 0 101.5 0V5a2.5 2.5 0 00-2.5-2.5zm-7.5 10a.75.75 0 100 1.5.75.75 0 000-1.5zM12 12.5a.75.75 0 100 1.5.75.75 0 000-1.5z" fill="none" stroke="#00fbff" stroke-width="1.2"/></svg>
            <text x="35" y="0" font-family="'Segoe UI', sans-serif" font-weight="700" font-size="14" fill="#FFFFFF">Total PRs:</text>
            <text x="220" y="0" font-family="'Segoe UI', sans-serif" font-weight="900" font-size="14" fill="#FFFFFF">185</text>
        </g>
        <g transform="translate(0, 78)">
            <svg x="0" y="-14" width="18" height="18" viewBox="0 0 16 16"><path d="M8 15A7 7 0 108 1a7 7 0 000 14zm0 1A8 8 0 118 0a8 8 0 010 16z" fill="#00fbff"/><path d="M7.002 11a1 1 0 112 0 1 1 0 01-2 0zM7.1 4h1.8l-.45 6h-.9L7.1 4z" fill="#00fbff"/></svg>
            <text x="35" y="0" font-family="'Segoe UI', sans-serif" font-weight="700" font-size="14" fill="#FFFFFF">Total Issues:</text>
            <text x="220" y="0" font-family="'Segoe UI', sans-serif" font-weight="900" font-size="14" fill="#FFFFFF">0</text>
        </g>
        <g transform="translate(0, 104)">
            <svg x="0" y="-14" width="18" height="18" viewBox="0 0 16 16"><path d="M2 1.75C2 .784 2.784 0 3.75 0h8.5C13.216 0 14 .784 14 1.75v11.5A1.75 1.75 0 0112.25 15h-8.5A1.75 1.75 0 012 13.25V1.75zM3.5 1.75v11.5c0 .138.112.25.25.25h8.5a.25.25 0 00.25-.25V1.75a.25.25 0 00-.25-.25h-8.5a.25.25 0 00-.25.25z" fill="#00fbff"/><path d="M5 3h6v1.5H5V3zm0 3h6v1.5H5V6z" fill="#00fbff"/></svg>
            <text x="35" y="0" font-family="'Segoe UI', sans-serif" font-weight="700" font-size="14" fill="#FFFFFF">Contributed to (last year):</text>
            <text x="220" y="0" font-family="'Segoe UI', sans-serif" font-weight="900" font-size="14" fill="#FFFFFF">1</text>
        </g>
    </g>
    
    <g transform="translate(400, 105)">
        <circle r="44" stroke="#00fbff" stroke-width="4.5" fill="none" opacity="0.1"/>
        <circle r="44" stroke="#00fbff" stroke-width="4.5" fill="none" 
                stroke-dasharray="276.46" stroke-dashoffset="13.823000000000011" 
                stroke-linecap="round" transform="rotate(-90)"/>
        <text text-anchor="middle" dy="0.35em" font-family="'Segoe UI', sans-serif" font-weight="900" font-size="34" fill="#FFFFFF">A+</text>
    </g>
    
    <text x="400" y="175" text-anchor="middle" font-family="'Segoe UI', sans-serif" font-size="10" fill="#FFFFFF" fill-opacity="0.25" font-style="italic">Now or Never</text>
</svg>